<svg xmlns="http://www.w3.org/2000/svg" viewBox="0 0 24 24" fill="currentColor">
  <path d="M12 .8a11.2 11.2 0 0 0-3.54 21.83c.56.1.77-.24.77-.54v-2c-3.13.68-3.79-1.34-3.79-1.34-.51-1.3-1.25-1.65-1.25-1.65-1.02-.7.08-.69.08-.69 1.13.08 1.72 1.16 1.72 1.16 1 .1.79 2.63 3.2 1.87.1-.73.39-1.22.71-1.5-2.5-.28-5.12-1.25-5.12-5.56 0-1.23.44-2.24 1.16-3.03-.12-.28-.5-1.43.11-2.98 0 0 .94-.3 3.08 1.16a10.63 10.63 0 0 1 5.61 0c2.14-1.46 3.08-1.16 3.08-1.16.61 1.55.23 2.7.11 2.98.72.79 1.16 1.8 1.16 3.03 0 4.32-2.63 5.27-5.13 5.55.4.35.76 1.04.76 2.1v3.11c0 .3.2.65.78.54A11.2 11.2 0 0 0 12 .8z"/>
</svg>
